<svg width="40" height="40" viewBox="0 0 40 40" fill="none" xmlns="http://www.w3.org/2000/svg">
<path d="M8.91602 26.2695C7.25195 26.2695 5.82812 25.9473 4.64453 25.3027C3.46094 24.6465 2.55273 23.7676 1.91992 22.666C1.28711 21.5645 0.970703 20.3457 0.970703 19.0098C0.970703 17.8262 1.20508 16.7598 1.67383 15.8105C2.1543 14.8496 2.79297 14.0352 3.58984 13.3672C4.39844 12.6992 5.30664 12.2129 6.31445 11.9082C6.4668 10.3613 6.87695 8.91992 7.54492 7.58398C8.22461 6.24805 9.10938 5.07617 10.1992 4.06836C11.3008 3.04883 12.543 2.25781 13.9258 1.69531C15.3203 1.12109 16.8086 0.833984 18.3906 0.833984C20.0312 0.833984 21.5371 1.11523 22.9082 1.67773C24.291 2.24023 25.5098 3.02539 26.5645 4.0332C27.6309 5.04102 28.5098 6.21875 29.2012 7.56641C31.0996 7.56641 32.8047 7.9707 34.3164 8.7793C35.8281 9.58789 37.0234 10.6953 37.9023 12.1016C38.7812 13.5078 39.2207 15.1016 39.2207 16.8828C39.2207 18.1836 38.9805 19.4023 38.5 20.5391C38.0195 21.6758 37.3457 22.6719 36.4785 23.5273C35.6113 24.3828 34.5918 25.0566 33.4199 25.5488C32.248 26.0293 30.9766 26.2695 29.6055 26.2695H8.91602ZM11.1309 32.2812C10.9902 32.5391 10.7793 32.7031 10.498 32.7734C10.2285 32.8555 9.96484 32.8203 9.70703 32.668C9.4375 32.5156 9.26758 32.3047 9.19727 32.0352C9.13867 31.7656 9.17383 31.5078 9.30273 31.2617L10.4102 29.3457C10.5625 29.0879 10.7734 28.918 11.043 28.8359C11.3125 28.7539 11.582 28.7891 11.8516 28.9414C12.1094 29.0938 12.2676 29.3105 12.3262 29.5918C12.3965 29.8613 12.3613 30.125 12.2207 30.3828L11.1309 32.2812ZM18.3906 34.8301C18.25 35.0879 18.0391 35.252 17.7578 35.3223C17.4883 35.4043 17.2246 35.3691 16.9668 35.2168C16.6973 35.0645 16.5273 34.8535 16.457 34.584C16.3867 34.3145 16.4219 34.0566 16.5625 33.8105L19.1465 29.3633C19.2871 29.0938 19.4922 28.9238 19.7617 28.8535C20.0312 28.7715 20.3008 28.8066 20.5703 28.959C20.8281 29.1113 20.9863 29.3281 21.0449 29.6094C21.1152 29.8789 21.0801 30.1426 20.9395 30.4004L18.3906 34.8301ZM28.5508 32.334C28.4102 32.5918 28.1992 32.7617 27.918 32.8438C27.6484 32.9258 27.3848 32.8906 27.127 32.7383C26.8574 32.5859 26.6875 32.3691 26.6172 32.0879C26.5586 31.8184 26.5996 31.5664 26.7402 31.332L27.8477 29.3984C27.9883 29.1406 28.1934 28.9707 28.4629 28.8887C28.7324 28.8066 29.002 28.8477 29.2715 29.0117C29.5293 29.1641 29.6875 29.3809 29.7461 29.6621C29.8164 29.9316 29.7812 30.1895 29.6406 30.4355L28.5508 32.334ZM8.08984 37.3086C7.58594 37.3086 7.15234 37.127 6.78906 36.7637C6.42578 36.4004 6.24414 35.9668 6.24414 35.4629C6.24414 34.959 6.42578 34.5254 6.78906 34.1621C7.15234 33.8105 7.58594 33.6348 8.08984 33.6348C8.59375 33.6348 9.02734 33.8105 9.39062 34.1621C9.75391 34.5254 9.93555 34.959 9.93555 35.4629C9.93555 35.9668 9.75391 36.4004 9.39062 36.7637C9.02734 37.127 8.59375 37.3086 8.08984 37.3086ZM15.3496 39.8574C14.8457 39.8574 14.4121 39.6758 14.0488 39.3125C13.6855 38.9492 13.5039 38.5156 13.5039 38.0117C13.5039 37.5078 13.6855 37.0742 14.0488 36.7109C14.4121 36.3594 14.8457 36.1836 15.3496 36.1836C15.8535 36.1836 16.2871 36.3594 16.6504 36.7109C17.0137 37.0742 17.1953 37.5078 17.1953 38.0117C17.1953 38.5156 17.0137 38.9492 16.6504 39.3125C16.2871 39.6758 15.8535 39.8574 15.3496 39.8574ZM25.5273 37.3789C25.0117 37.3789 24.5723 37.1973 24.209 36.834C23.8574 36.4707 23.6816 36.0312 23.6816 35.5156C23.6816 35.0234 23.8574 34.5957 24.209 34.2324C24.5723 33.8691 25.0117 33.6875 25.5273 33.6875C26.0312 33.6875 26.459 33.8691 26.8105 34.2324C27.1738 34.5957 27.3555 35.0234 27.3555 35.5156C27.3555 36.0312 27.1738 36.4707 26.8105 36.834C26.4473 37.1973 26.0195 37.3789 25.5273 37.3789Z" fill="#00AAE6"/>
</svg>
