<svg width="24" height="24" viewBox="0 0 24 24" xmlns="http://www.w3.org/2000/svg">
<path d="M12 22.3438C10.6111 22.3438 9.30556 22.0765 8.08333 21.5417C6.86806 21.014 5.79514 20.2848 4.86458 19.3542C3.93403 18.4237 3.20139 17.3508 2.66667 16.1355C2.13889 14.9133 1.875 13.6077 1.875 12.2188C1.875 10.8369 2.13889 9.5348 2.66667 8.31258C3.19444 7.09036 3.92361 6.01397 4.85417 5.08341C5.79167 4.15286 6.86806 3.42369 8.08333 2.89591C9.30556 2.36814 10.6076 2.10425 11.9896 2.10425C13.3715 2.10425 14.6736 2.36814 15.8958 2.89591C17.1181 3.42369 18.1944 4.15286 19.125 5.08341C20.0556 6.01397 20.7847 7.09036 21.3125 8.31258C21.8472 9.5348 22.1146 10.8369 22.1146 12.2188C22.1146 13.6077 21.8507 14.9133 21.3229 16.1355C20.7951 17.3508 20.066 18.4237 19.1354 19.3542C18.2049 20.2848 17.1285 21.014 15.9063 21.5417C14.684 22.0765 13.3819 22.3438 12 22.3438ZM17.2604 12.198C17.2604 11.9688 17.1528 11.7501 16.9375 11.5417L13.4896 8.10425C13.3368 7.95147 13.1424 7.87508 12.9063 7.87508C12.6771 7.87508 12.4861 7.95147 12.3333 8.10425C12.1875 8.25703 12.1146 8.448 12.1146 8.67716C12.1146 8.89244 12.1979 9.08689 12.3646 9.2605L13.6146 10.4792L14.8021 11.448L12.6771 11.3647H7.55208C7.31597 11.3647 7.11806 11.4445 6.95833 11.6042C6.79861 11.757 6.71875 11.9549 6.71875 12.198C6.71875 12.4411 6.79514 12.6459 6.94792 12.8126C7.10764 12.9723 7.30903 13.0522 7.55208 13.0522H12.6771L14.8125 12.9584L13.6146 13.9376L12.3646 15.1459C12.1979 15.3056 12.1146 15.5001 12.1146 15.7292C12.1146 15.9584 12.1875 16.1494 12.3333 16.3022C12.4861 16.4549 12.6771 16.5313 12.9063 16.5313C13.1354 16.5313 13.3299 16.4549 13.4896 16.3022L16.9375 12.8751C17.1528 12.6667 17.2604 12.4411 17.2604 12.198Z" fill="white"/>
</svg>
