<svg width="24" height="24" viewBox="0 0 24 24" fill="none" xmlns="http://www.w3.org/2000/svg">
<path d="M10.004 21.7473C9.80954 21.9964 9.59383 22.121 9.35685 22.121C9.12595 22.121 8.94366 22.0238 8.80998 21.8293C8.68237 21.6409 8.6763 21.3918 8.79175 21.0819L11.3621 14.3554H6.45841C6.27005 14.3554 6.1151 14.2976 5.99357 14.1822C5.87204 14.0667 5.81128 13.9239 5.81128 13.7538C5.81128 13.5715 5.89027 13.3831 6.04826 13.1887L13.9962 2.99859C14.1906 2.74946 14.4033 2.62793 14.6342 2.63401C14.8712 2.63401 15.0535 2.72819 15.1811 2.91656C15.3087 3.10493 15.3148 3.35406 15.1993 3.66395L12.6381 10.3905H17.5417C17.7301 10.3905 17.882 10.4482 17.9975 10.5637C18.119 10.6791 18.1798 10.8219 18.1798 10.9921C18.1798 11.1804 18.1038 11.3719 17.9519 11.5663L10.004 21.7473ZM10.5053 19.3775L10.2319 19.2499L15.9102 11.7304H10.5509L13.4766 5.36838L13.7592 5.49599L8.08081 13.0155H13.4402L10.5053 19.3775Z" fill="#8496A8"/>
</svg>
