<svg width="24" height="24" viewBox="0 0 24 24" fill="none" xmlns="http://www.w3.org/2000/svg">
<g id="ico_book">
<path id="icon" d="M9.9493 8.7592C9.79131 8.7592 9.6546 8.70147 9.53914 8.58602C9.42369 8.46449 9.36597 8.32473 9.36597 8.16675C9.36597 8.00269 9.42369 7.86293 9.53914 7.74748C9.6546 7.63203 9.79131 7.5743 9.9493 7.5743H16.1928C16.3569 7.5743 16.4966 7.63203 16.6121 7.74748C16.7275 7.86293 16.7852 8.00269 16.7852 8.16675C16.7852 8.32473 16.7275 8.46449 16.6121 8.58602C16.4966 8.70147 16.3569 8.7592 16.1928 8.7592H9.9493ZM9.9493 11.1381C9.79131 11.1381 9.6546 11.0834 9.53914 10.974C9.42369 10.8586 9.36597 10.7188 9.36597 10.5548C9.36597 10.3968 9.42369 10.2601 9.53914 10.1446C9.6546 10.0231 9.79131 9.96232 9.9493 9.96232H14.6889C14.8529 9.96232 14.9927 10.0231 15.1082 10.1446C15.2236 10.2601 15.2813 10.3968 15.2813 10.5548C15.2813 10.7188 15.2236 10.8586 15.1082 10.974C14.9927 11.0834 14.8529 11.1381 14.6889 11.1381H9.9493ZM7.3881 21.7292C6.4888 21.7292 5.80824 21.4983 5.34644 21.0365C4.89071 20.5808 4.66284 19.9033 4.66284 19.004V5.93368C4.66284 5.01614 4.89374 4.32647 5.35555 3.86466C5.81736 3.39678 6.50095 3.16284 7.40633 3.16284H16.5756C17.4871 3.16284 18.1707 3.39678 18.6264 3.86466C19.0882 4.32647 19.3191 5.01614 19.3191 5.93368V15.6589C19.3191 16.0904 19.2401 16.4276 19.0821 16.6707C18.9302 16.9137 18.7601 17.1264 18.5717 17.3087C18.2132 17.655 17.9914 18.0287 17.9063 18.4298C17.8273 18.8247 17.8638 19.1863 18.0157 19.5144C18.1737 19.8486 18.4319 20.0917 18.7904 20.2436C18.9363 20.3043 19.0608 20.3985 19.1641 20.5261C19.2674 20.6598 19.3191 20.8117 19.3191 20.9819C19.3191 21.1945 19.2462 21.3707 19.1003 21.5105C18.9606 21.6563 18.7844 21.7292 18.5717 21.7292H7.3881ZM6.22144 16.4428C6.40373 16.3395 6.60425 16.2605 6.823 16.2058C7.04782 16.145 7.29696 16.1147 7.57039 16.1147H17.0587C17.5326 16.1147 17.7696 15.8868 17.7696 15.4311V6.00659C17.7696 5.58732 17.6602 5.26831 17.4415 5.04956C17.2227 4.82473 16.8977 4.71232 16.4662 4.71232H7.50659C7.07517 4.71232 6.75312 4.82473 6.54045 5.04956C6.32777 5.26831 6.22144 5.58732 6.22144 6.00659V16.4428ZM7.53394 20.2345H16.7214C16.4966 19.8516 16.372 19.4263 16.3477 18.9584C16.3234 18.4966 16.4146 18.0439 16.6212 17.6003C16.53 17.6186 16.4328 17.6277 16.3295 17.6277H7.59774C7.15416 17.6277 6.80477 17.7462 6.54956 17.9832C6.30043 18.2201 6.17586 18.53 6.17586 18.9128C6.17586 19.326 6.28828 19.6481 6.5131 19.879C6.744 20.116 7.08428 20.2345 7.53394 20.2345ZM7.22404 16.8894V4.32039H8.40894V16.8894H7.22404Z" fill="#8496A8"/>
</g>
</svg>
