<svg width="24" height="24" viewBox="0 0 24 24" fill="none" xmlns="http://www.w3.org/2000/svg">
<g id="ico_calendar">
<path id="&#244;&#128;&#137;&#137;" d="M6.08463 20.7773C5.17318 20.7773 4.48351 20.5495 4.01562 20.0938C3.54774 19.638 3.3138 18.9544 3.3138 18.043V7.53385C3.3138 6.62239 3.54774 5.9388 4.01562 5.48307C4.48351 5.02127 5.17318 4.79036 6.08463 4.79036H17.9063C18.8299 4.79036 19.5226 5.02127 19.9844 5.48307C20.4462 5.94488 20.6771 6.62847 20.6771 7.53385V18.043C20.6771 18.9484 20.4462 19.6289 19.9844 20.0846C19.5226 20.5464 18.8299 20.7773 17.9063 20.7773H6.08463ZM6.01172 19.237H17.9701C18.3407 19.237 18.6263 19.1398 18.8268 18.9453C19.0334 18.7509 19.1367 18.4562 19.1367 18.0612V10.0312C19.1367 9.64236 19.0334 9.35069 18.8268 9.15625C18.6263 8.9618 18.3407 8.86458 17.9701 8.86458H6.01172C5.64106 8.86458 5.35851 8.9618 5.16406 9.15625C4.96962 9.35069 4.8724 9.64236 4.8724 10.0312V18.0612C4.8724 18.4562 4.96962 18.7509 5.16406 18.9453C5.35851 19.1398 5.64106 19.237 6.01172 19.237ZM10.332 11.8997C10.1801 11.8997 10.0707 11.8724 10.0039 11.8177C9.94314 11.763 9.91276 11.6597 9.91276 11.5078V11.0065C9.91276 10.8546 9.94314 10.7513 10.0039 10.6966C10.0707 10.6359 10.1801 10.6055 10.332 10.6055H10.8333C10.9852 10.6055 11.0885 10.6359 11.1432 10.6966C11.204 10.7513 11.2344 10.8546 11.2344 11.0065V11.5078C11.2344 11.6597 11.204 11.763 11.1432 11.8177C11.0885 11.8724 10.9852 11.8997 10.8333 11.8997H10.332ZM13.1667 11.8997C13.0148 11.8997 12.9084 11.8724 12.8477 11.8177C12.793 11.763 12.7656 11.6597 12.7656 11.5078V11.0065C12.7656 10.8546 12.793 10.7513 12.8477 10.6966C12.9084 10.6359 13.0148 10.6055 13.1667 10.6055H13.6771C13.829 10.6055 13.9353 10.6359 13.9961 10.6966C14.0569 10.7513 14.0872 10.8546 14.0872 11.0065V11.5078C14.0872 11.6597 14.0569 11.763 13.9961 11.8177C13.9353 11.8724 13.829 11.8997 13.6771 11.8997H13.1667ZM16.0104 11.8997C15.8524 11.8997 15.7431 11.8724 15.6823 11.8177C15.6276 11.763 15.6003 11.6597 15.6003 11.5078V11.0065C15.6003 10.8546 15.6276 10.7513 15.6823 10.6966C15.7431 10.6359 15.8524 10.6055 16.0104 10.6055H16.5208C16.6727 10.6055 16.776 10.6359 16.8307 10.6966C16.8915 10.7513 16.9219 10.8546 16.9219 11.0065V11.5078C16.9219 11.6597 16.8915 11.763 16.8307 11.8177C16.776 11.8724 16.6727 11.8997 16.5208 11.8997H16.0104ZM7.48828 14.707C7.33029 14.707 7.22092 14.6797 7.16016 14.625C7.10547 14.5642 7.07812 14.4579 7.07812 14.306V13.7956C7.07812 13.6437 7.10547 13.5404 7.16016 13.4857C7.22092 13.431 7.33029 13.4036 7.48828 13.4036H7.98958C8.14757 13.4036 8.25391 13.431 8.30859 13.4857C8.36936 13.5404 8.39974 13.6437 8.39974 13.7956V14.306C8.39974 14.4579 8.36936 14.5642 8.30859 14.625C8.25391 14.6797 8.14757 14.707 7.98958 14.707H7.48828ZM10.332 14.707C10.1801 14.707 10.0707 14.6797 10.0039 14.625C9.94314 14.5642 9.91276 14.4579 9.91276 14.306V13.7956C9.91276 13.6437 9.94314 13.5404 10.0039 13.4857C10.0707 13.431 10.1801 13.4036 10.332 13.4036H10.8333C10.9852 13.4036 11.0885 13.431 11.1432 13.4857C11.204 13.5404 11.2344 13.6437 11.2344 13.7956V14.306C11.2344 14.4579 11.204 14.5642 11.1432 14.625C11.0885 14.6797 10.9852 14.707 10.8333 14.707H10.332ZM13.1667 14.707C13.0148 14.707 12.9084 14.6797 12.8477 14.625C12.793 14.5642 12.7656 14.4579 12.7656 14.306V13.7956C12.7656 13.6437 12.793 13.5404 12.8477 13.4857C12.9084 13.431 13.0148 13.4036 13.1667 13.4036H13.6771C13.829 13.4036 13.9353 13.431 13.9961 13.4857C14.0569 13.5404 14.0872 13.6437 14.0872 13.7956V14.306C14.0872 14.4579 14.0569 14.5642 13.9961 14.625C13.9353 14.6797 13.829 14.707 13.6771 14.707H13.1667ZM16.0104 14.707C15.8524 14.707 15.7431 14.6797 15.6823 14.625C15.6276 14.5642 15.6003 14.4579 15.6003 14.306V13.7956C15.6003 13.6437 15.6276 13.5404 15.6823 13.4857C15.7431 13.431 15.8524 13.4036 16.0104 13.4036H16.5208C16.6727 13.4036 16.776 13.431 16.8307 13.4857C16.8915 13.5404 16.9219 13.6437 16.9219 13.7956V14.306C16.9219 14.4579 16.8915 14.5642 16.8307 14.625C16.776 14.6797 16.6727 14.707 16.5208 14.707H16.0104ZM7.48828 17.4961C7.33029 17.4961 7.22092 17.4687 7.16016 17.4141C7.10547 17.3594 7.07812 17.2561 7.07812 17.1042V16.6029C7.07812 16.4449 7.10547 16.3385 7.16016 16.2839C7.22092 16.2292 7.33029 16.2018 7.48828 16.2018H7.98958C8.14757 16.2018 8.25391 16.2292 8.30859 16.2839C8.36936 16.3385 8.39974 16.4449 8.39974 16.6029V17.1042C8.39974 17.2561 8.36936 17.3594 8.30859 17.4141C8.25391 17.4687 8.14757 17.4961 7.98958 17.4961H7.48828ZM10.332 17.4961C10.1801 17.4961 10.0707 17.4687 10.0039 17.4141C9.94314 17.3594 9.91276 17.2561 9.91276 17.1042V16.6029C9.91276 16.4449 9.94314 16.3385 10.0039 16.2839C10.0707 16.2292 10.1801 16.2018 10.332 16.2018H10.8333C10.9852 16.2018 11.0885 16.2292 11.1432 16.2839C11.204 16.3385 11.2344 16.4449 11.2344 16.6029V17.1042C11.2344 17.2561 11.204 17.3594 11.1432 17.4141C11.0885 17.4687 10.9852 17.4961 10.8333 17.4961H10.332ZM13.1667 17.4961C13.0148 17.4961 12.9084 17.4687 12.8477 17.4141C12.793 17.3594 12.7656 17.2561 12.7656 17.1042V16.6029C12.7656 16.4449 12.793 16.3385 12.8477 16.2839C12.9084 16.2292 13.0148 16.2018 13.1667 16.2018H13.6771C13.829 16.2018 13.9353 16.2292 13.9961 16.2839C14.0569 16.3385 14.0872 16.4449 14.0872 16.6029V17.1042C14.0872 17.2561 14.0569 17.3594 13.9961 17.4141C13.9353 17.4687 13.829 17.4961 13.6771 17.4961H13.1667Z" fill="white"/>
</g>
</svg>
