<svg width="36" height="36" viewBox="0 0 36 36" fill="none" xmlns="http://www.w3.org/2000/svg">
<path d="M8.0332 28.6426C7.86003 28.4785 7.74609 28.2826 7.69141 28.0547C7.63672 27.8268 7.63672 27.599 7.69141 27.3711C7.75521 27.1432 7.86914 26.9473 8.0332 26.7832L16.127 18.6758L8.0332 10.5821C7.86914 10.418 7.75977 10.222 7.70508 9.99416C7.65039 9.76629 7.65039 9.54299 7.70508 9.32424C7.75977 9.09637 7.86914 8.89585 8.0332 8.72268C8.19727 8.5495 8.39323 8.43557 8.62109 8.38088C8.84896 8.32619 9.07227 8.33075 9.29102 8.39455C9.51888 8.44924 9.7194 8.55861 9.89258 8.72268L17.9863 16.8301L26.1074 8.72268C26.3535 8.47658 26.6589 8.35353 27.0234 8.35353C27.388 8.35353 27.6979 8.47658 27.9531 8.72268C28.2083 8.96877 28.3359 9.27866 28.3359 9.65236C28.3359 10.0261 28.2129 10.336 27.9668 10.5821L19.8457 18.6758L27.9668 26.7832C28.2129 27.0293 28.3359 27.3392 28.3359 27.7129C28.3359 28.0775 28.2083 28.3874 27.9531 28.6426C27.6979 28.8978 27.388 29.0209 27.0234 29.0117C26.6589 29.0117 26.3535 28.8887 26.1074 28.6426L17.9863 20.5352L9.89258 28.6426C9.7194 28.8067 9.51888 28.916 9.29102 28.9707C9.07227 29.0345 8.84896 29.0345 8.62109 28.9707C8.39323 28.916 8.19727 28.8067 8.0332 28.6426Z" fill="black"/>
</svg>
