<svg width="32" height="32" viewBox="0 0 32 32" fill="none" xmlns="http://www.w3.org/2000/svg">
<g id="ico_delete" opacity="0.6">
<path id="&#244;&#128;&#136;&#148;" d="M16 28.4132C14.3796 28.4132 12.8565 28.1013 11.4306 27.4774C10.0127 26.8617 8.76099 26.011 7.67535 24.9254C6.5897 23.8397 5.73495 22.588 5.11111 21.1701C4.49537 19.7442 4.1875 18.2211 4.1875 16.6007C4.1875 14.9884 4.49537 13.4693 5.11111 12.0434C5.72685 10.6175 6.57755 9.3617 7.66319 8.27605C8.75694 7.1904 10.0127 6.33971 11.4306 5.72397C12.8565 5.10822 14.3756 4.80035 15.9878 4.80035C17.6001 4.80035 19.1192 5.10822 20.5451 5.72397C21.9711 6.33971 23.2269 7.1904 24.3125 8.27605C25.3981 9.3617 26.2488 10.6175 26.8646 12.0434C27.4884 13.4693 27.8003 14.9884 27.8003 16.6007C27.8003 18.2211 27.4925 19.7442 26.8767 21.1701C26.261 22.588 25.4103 23.8397 24.3247 24.9254C23.239 26.011 21.9832 26.8617 20.5573 27.4774C19.1314 28.1013 17.6123 28.4132 16 28.4132ZM12.9983 23.5521H19.0017C19.4149 23.5521 19.7431 23.4427 19.9861 23.224C20.2292 22.9971 20.3588 22.673 20.375 22.2517L20.776 13.0156H21.6632C21.8252 13.0156 21.9549 12.967 22.0521 12.8698C22.1574 12.7645 22.2101 12.6389 22.2101 12.4931C22.2182 12.3391 22.1696 12.2095 22.0642 12.1042C21.9589 11.9988 21.8252 11.9462 21.6632 11.9462H18.9045V11.0347C18.9045 10.5405 18.7465 10.1476 18.4306 9.85591C18.1227 9.55614 17.6973 9.40626 17.1545 9.40626H14.8333C14.2986 9.40626 13.8733 9.55614 13.5573 9.85591C13.2494 10.1476 13.0955 10.5405 13.0955 11.0347V11.9462H10.3125C10.1667 11.9462 10.0411 11.9988 9.93576 12.1042C9.83044 12.2095 9.77778 12.3391 9.77778 12.4931C9.77778 12.6389 9.83044 12.7645 9.93576 12.8698C10.0411 12.967 10.1667 13.0156 10.3125 13.0156H11.2483L11.6615 22.2517C11.6696 22.673 11.7911 22.9971 12.026 23.224C12.2691 23.4427 12.5932 23.5521 12.9983 23.5521ZM13.9705 21.717C13.6869 21.717 13.5411 21.5793 13.533 21.3038L13.3142 14.4618C13.298 14.1782 13.4398 14.0365 13.7396 14.0365C14.0231 14.0365 14.169 14.1742 14.1771 14.4497L14.3958 21.2917C14.4039 21.5752 14.2622 21.717 13.9705 21.717ZM15.9878 21.717C15.6962 21.717 15.5503 21.5752 15.5503 21.2917V14.4497C15.5503 14.1742 15.6962 14.0365 15.9878 14.0365C16.2876 14.0365 16.4375 14.1742 16.4375 14.4497V21.2917C16.4375 21.5752 16.2876 21.717 15.9878 21.717ZM17.9931 21.717C17.7095 21.717 17.5677 21.5752 17.5677 21.2917L17.7986 14.4497C17.8067 14.1742 17.9525 14.0365 18.2361 14.0365C18.5278 14.0365 18.6736 14.1782 18.6736 14.4618L18.4306 21.3038C18.4306 21.5793 18.2847 21.717 17.9931 21.717ZM14.3472 11.9462V11.0955C14.3472 10.9416 14.3958 10.82 14.4931 10.7309C14.5984 10.6418 14.7321 10.5972 14.8941 10.5972H17.0937C17.2477 10.5972 17.3733 10.6418 17.4705 10.7309C17.5758 10.82 17.6285 10.9416 17.6285 11.0955V11.9462H14.3472Z" fill="#8496A8"/>
</g>
</svg>
