<svg width="24" height="20" fill="none" xmlns="http://www.w3.org/2000/svg">
    <g opacity=".6">
        <mask id="a" maskUnits="userSpaceOnUse" x="0" y="1.333" width="24" height="18" fill="#000">
            <path fill="#fff" d="M0 1.333h24v18H0z"/>
            <path d="M11.76 16.23c-.952 0-1.856-.116-2.711-.349a11.441 11.441 0 0 1-2.363-.912 12.535 12.535 0 0 1-1.952-1.253 11.997 11.997 0 0 1-1.48-1.382c-.406-.46-.717-.886-.935-1.276C2.106 10.663 2 10.344 2 10.1c0-.289.147-.676.44-1.162.294-.486.715-1.005 1.261-1.557A11.097 11.097 0 0 1 5.646 5.84l2.53 2.544a3.79 3.79 0 0 0-.305.82 4.018 4.018 0 0 0-.098.897c.005.724.184 1.385.539 1.982a4.21 4.21 0 0 0 1.435 1.443c.598.36 1.269.54 2.013.54.304 0 .598-.033.881-.1.289-.07.56-.171.813-.303l1.937 1.937c-.547.197-1.124.352-1.732.463-.608.112-1.24.167-1.899.167Zm6.304-1.974-2.65-2.667a3.486 3.486 0 0 0 .326-1.488 3.8 3.8 0 0 0-.539-1.998 4.042 4.042 0 0 0-1.443-1.435 3.867 3.867 0 0 0-1.998-.532c-.268 0-.526.028-.774.084-.249.05-.487.121-.715.212L8.35 4.526a10.554 10.554 0 0 1 3.41-.555c.962 0 1.869.117 2.72.35a11.4 11.4 0 0 1 2.37.911c.728.38 1.379.8 1.951 1.261.578.456 1.066.917 1.466 1.382.4.461.707.886.92 1.276.212.39.318.707.318.95 0 .283-.142.663-.425 1.14-.284.475-.684.982-1.2 1.518a10.887 10.887 0 0 1-1.816 1.497ZM9.451 9.964c0-.045.003-.091.008-.137.005-.05.007-.1.007-.152l2.56 2.553-.144.015h-.13a2.26 2.26 0 0 1-1.154-.304 2.378 2.378 0 0 1-.835-.828 2.204 2.204 0 0 1-.312-1.147Zm4.603-.015c0 .045-.002.091-.008.137 0 .04-.002.08-.007.121l-2.522-2.522a.98.98 0 0 1 .122-.007h.129c.425 0 .81.101 1.154.304.345.202.618.476.82.82.208.344.312.727.312 1.147Zm3.335 6.44L5.289 4.299a.524.524 0 0 1-.167-.395c0-.162.055-.294.167-.395a.513.513 0 0 1 .395-.175c.157 0 .293.058.41.175l12.092 12.084c.111.112.167.24.167.388a.55.55 0 0 1-.167.41.526.526 0 0 1-.403.167.54.54 0 0 1-.395-.167Z"/>
        </mask>
        <path d="M11.76 16.23c-.952 0-1.856-.116-2.711-.349a11.441 11.441 0 0 1-2.363-.912 12.535 12.535 0 0 1-1.952-1.253 11.997 11.997 0 0 1-1.48-1.382c-.406-.46-.717-.886-.935-1.276C2.106 10.663 2 10.344 2 10.1c0-.289.147-.676.44-1.162.294-.486.715-1.005 1.261-1.557A11.097 11.097 0 0 1 5.646 5.84l2.53 2.544a3.79 3.79 0 0 0-.305.82 4.018 4.018 0 0 0-.098.897c.005.724.184 1.385.539 1.982a4.21 4.21 0 0 0 1.435 1.443c.598.36 1.269.54 2.013.54.304 0 .598-.033.881-.1.289-.07.56-.171.813-.303l1.937 1.937c-.547.197-1.124.352-1.732.463-.608.112-1.24.167-1.899.167Zm6.304-1.974-2.65-2.667a3.486 3.486 0 0 0 .326-1.488 3.8 3.8 0 0 0-.539-1.998 4.042 4.042 0 0 0-1.443-1.435 3.867 3.867 0 0 0-1.998-.532c-.268 0-.526.028-.774.084-.249.05-.487.121-.715.212L8.35 4.526a10.554 10.554 0 0 1 3.41-.555c.962 0 1.869.117 2.72.35a11.4 11.4 0 0 1 2.37.911c.728.38 1.379.8 1.951 1.261.578.456 1.066.917 1.466 1.382.4.461.707.886.92 1.276.212.39.318.707.318.95 0 .283-.142.663-.425 1.14-.284.475-.684.982-1.2 1.518a10.887 10.887 0 0 1-1.816 1.497ZM9.451 9.964c0-.045.003-.091.008-.137.005-.05.007-.1.007-.152l2.56 2.553-.144.015h-.13a2.26 2.26 0 0 1-1.154-.304 2.378 2.378 0 0 1-.835-.828 2.204 2.204 0 0 1-.312-1.147Zm4.603-.015c0 .045-.002.091-.008.137 0 .04-.002.08-.007.121l-2.522-2.522a.98.98 0 0 1 .122-.007h.129c.425 0 .81.101 1.154.304.345.202.618.476.82.82.208.344.312.727.312 1.147Zm3.335 6.44L5.289 4.299a.524.524 0 0 1-.167-.395c0-.162.055-.294.167-.395a.513.513 0 0 1 .395-.175c.157 0 .293.058.41.175l12.092 12.084c.111.112.167.24.167.388a.55.55 0 0 1-.167.41.526.526 0 0 1-.403.167.54.54 0 0 1-.395-.167Z" fill="#8496A8"/>
    </g>
</svg>
