<svg width="24" height="24" viewBox="0 0 24 24" fill="none" xmlns="http://www.w3.org/2000/svg">
<g id="ico_fields-active">
<path id="&#244;&#128;&#144;&#159;" d="M11.9999 14.0365C11.8176 14.0365 11.6353 14.0061 11.453 13.9453C11.2768 13.8845 11.0793 13.7904 10.8606 13.6628L4.13403 9.76172C3.77553 9.54905 3.51728 9.34852 3.35929 9.16016C3.20131 8.97179 3.12231 8.75 3.12231 8.49479C3.12231 8.23351 3.20131 8.00868 3.35929 7.82031C3.51728 7.63194 3.77553 7.43142 4.13403 7.21875L10.8606 3.31771C11.0793 3.1901 11.2768 3.09896 11.453 3.04427C11.6353 2.98351 11.8176 2.95312 11.9999 2.95312C12.1761 2.95312 12.3523 2.98351 12.5286 3.04427C12.7109 3.09896 12.9114 3.1901 13.1301 3.31771L19.8476 7.21875C20.2122 7.43142 20.4704 7.63194 20.6223 7.82031C20.7803 8.00868 20.8593 8.23351 20.8593 8.49479C20.8593 8.75 20.7803 8.97179 20.6223 9.16016C20.4704 9.34852 20.2122 9.54905 19.8476 9.76172L13.1301 13.6628C12.9114 13.7904 12.7109 13.8845 12.5286 13.9453C12.3523 14.0061 12.1761 14.0365 11.9999 14.0365ZM11.9999 18.293C11.8298 18.293 11.6688 18.2595 11.5168 18.1927C11.3649 18.1198 11.1948 18.0256 11.0064 17.9102L3.6783 13.5898C3.48994 13.4865 3.35018 13.3589 3.25903 13.207C3.16789 13.0551 3.12231 12.8971 3.12231 12.7331C3.12231 12.5386 3.177 12.3685 3.28638 12.2227C3.40183 12.0707 3.52336 11.9583 3.65096 11.8854L11.5806 16.4701C11.6596 16.5187 11.7326 16.5582 11.7994 16.5885C11.8662 16.6128 11.9331 16.625 11.9999 16.625C12.0607 16.625 12.1245 16.6128 12.1913 16.5885C12.2582 16.5582 12.3311 16.5187 12.4101 16.4701L20.3306 11.8854C20.4643 11.9583 20.5859 12.0707 20.6952 12.2227C20.8107 12.3685 20.8684 12.5386 20.8684 12.7331C20.8684 12.8971 20.8228 13.0551 20.7317 13.207C20.6405 13.3529 20.5038 13.4805 20.3215 13.5898L12.9843 17.9102C12.7898 18.0256 12.6167 18.1198 12.4648 18.1927C12.3189 18.2595 12.164 18.293 11.9999 18.293ZM11.9999 22.2943C11.8298 22.2943 11.6688 22.2578 11.5168 22.1849C11.3649 22.1181 11.1948 22.0269 11.0064 21.9115L3.6783 17.5911C3.48994 17.4818 3.35018 17.3511 3.25903 17.1992C3.16789 17.0473 3.12231 16.8893 3.12231 16.7253C3.12231 16.5308 3.177 16.3607 3.28638 16.2148C3.40183 16.069 3.52336 15.9596 3.65096 15.8867L11.5806 20.4714C11.6596 20.5139 11.7326 20.5503 11.7994 20.5807C11.8662 20.6111 11.9331 20.6263 11.9999 20.6263C12.0607 20.6263 12.1245 20.6111 12.1913 20.5807C12.2582 20.5503 12.3311 20.5139 12.4101 20.4714L20.3306 15.8867C20.4643 15.9596 20.5859 16.069 20.6952 16.2148C20.8107 16.3607 20.8684 16.5308 20.8684 16.7253C20.8684 16.8893 20.8228 17.0473 20.7317 17.1992C20.6405 17.3511 20.5038 17.4818 20.3215 17.5911L12.9843 21.9115C12.7898 22.0269 12.6167 22.1181 12.4648 22.1849C12.3189 22.2578 12.164 22.2943 11.9999 22.2943Z" fill="#00AAE6"/>
</g>
</svg>
