<svg width="24" height="24" viewBox="0 0 24 24" fill="none" xmlns="http://www.w3.org/2000/svg">
<path d="M11.207 21.8711C10.964 21.8711 10.7574 21.8012 10.5872 21.6615C10.4232 21.5217 10.3138 21.3364 10.2591 21.1055L9.8125 19.2461C9.66059 19.1914 9.50868 19.1337 9.35677 19.0729C9.20486 19.0122 9.06207 18.9484 8.92838 18.8815L7.29687 19.8841C7.10243 20.0117 6.89583 20.0634 6.67708 20.0391C6.45833 20.0208 6.26996 19.9297 6.11198 19.7656L5 18.6536C4.82986 18.4896 4.73264 18.2982 4.70833 18.0794C4.6901 17.8546 4.75087 17.645 4.89062 17.4505L5.88411 15.8281C5.8112 15.6884 5.74436 15.5456 5.68359 15.3997C5.62891 15.2539 5.58029 15.1081 5.53776 14.9622L3.66016 14.5156C3.4171 14.467 3.22873 14.3607 3.09505 14.1966C2.96745 14.0265 2.90364 13.8199 2.90364 13.5768V12.0182C2.90364 11.7873 2.96745 11.5868 3.09505 11.4167C3.22873 11.2465 3.4171 11.1372 3.66016 11.0885L5.51953 10.6419C5.57422 10.4718 5.62891 10.3138 5.68359 10.168C5.74436 10.0221 5.80512 9.88542 5.86588 9.75781L4.8724 8.11719C4.73871 7.91667 4.68099 7.71007 4.69922 7.4974C4.71745 7.27865 4.81163 7.08724 4.98177 6.92318L6.11198 5.8112C6.28212 5.65321 6.46441 5.56207 6.65885 5.53776C6.85937 5.51345 7.06293 5.55903 7.26953 5.67448L8.91927 6.6862C9.05295 6.61936 9.19575 6.55555 9.34766 6.49479C9.50564 6.43403 9.66059 6.37326 9.8125 6.3125L10.2591 4.44401C10.3138 4.21311 10.4232 4.03081 10.5872 3.89713C10.7574 3.75738 10.964 3.6875 11.207 3.6875H12.793C13.0299 3.6875 13.2335 3.75738 13.4036 3.89713C13.5738 4.03081 13.6832 4.21311 13.7318 4.44401L14.1784 6.33073C14.3424 6.39149 14.4974 6.45226 14.6432 6.51302C14.7891 6.56771 14.9288 6.62847 15.0625 6.69531L16.7214 5.67448C16.9219 5.55903 17.1224 5.51345 17.3229 5.53776C17.5234 5.56207 17.7088 5.65321 17.8789 5.8112L19.0091 6.92318C19.1793 7.08724 19.2734 7.27865 19.2917 7.4974C19.3099 7.71007 19.2522 7.91667 19.1185 8.11719L18.125 9.75781C18.1858 9.88542 18.2435 10.0221 18.2982 10.168C18.3589 10.3138 18.4167 10.4718 18.4714 10.6419L20.3307 11.0885C20.5677 11.1372 20.753 11.2465 20.8867 11.4167C21.0204 11.5868 21.0872 11.7873 21.0872 12.0182V13.5768C21.0872 13.8199 21.0204 14.0265 20.8867 14.1966C20.753 14.3607 20.5677 14.467 20.3307 14.5156L18.4622 14.9622C18.4136 15.1081 18.3589 15.2539 18.2982 15.3997C18.2374 15.5456 18.1736 15.6884 18.1068 15.8281L19.1003 17.4505C19.2339 17.645 19.2917 17.8546 19.2734 18.0794C19.2552 18.2982 19.161 18.4896 18.9909 18.6536L17.8789 19.7656C17.7148 19.9297 17.5234 20.0208 17.3047 20.0391C17.092 20.0634 16.8885 20.0117 16.694 19.8841L15.0625 18.8815C14.9227 18.9484 14.7769 19.0122 14.625 19.0729C14.4792 19.1337 14.3273 19.1914 14.1693 19.2461L13.7318 21.1055C13.6832 21.3364 13.5738 21.5217 13.4036 21.6615C13.2335 21.8012 13.0299 21.8711 12.793 21.8711H11.207ZM12 15.8099C12.553 15.8099 13.0573 15.6732 13.513 15.3997C13.9748 15.1202 14.3424 14.7526 14.6159 14.2969C14.8893 13.8351 15.026 13.3247 15.026 12.7656C15.026 12.2127 14.8893 11.7083 14.6159 11.2526C14.3424 10.7969 13.9748 10.4323 13.513 10.1589C13.0573 9.88542 12.553 9.7487 12 9.7487C11.441 9.7487 10.9306 9.88542 10.4687 10.1589C10.013 10.4323 9.64844 10.7969 9.375 11.2526C9.10156 11.7083 8.96484 12.2127 8.96484 12.7656C8.96484 13.3247 9.10156 13.8351 9.375 14.2969C9.64844 14.7526 10.013 15.1202 10.4687 15.3997C10.9306 15.6732 11.441 15.8099 12 15.8099Z" fill="#8496A8"/>
</svg>
