<svg width="24" height="24" viewBox="0 0 24 24" fill="none" xmlns="http://www.w3.org/2000/svg">
<path d="M4.37109 13.4219C4.0855 13.4219 3.84852 13.3611 3.66016 13.2396C3.47179 13.1181 3.33203 12.9661 3.24088 12.7839C3.15582 12.5955 3.1224 12.398 3.14062 12.1914C3.15885 11.9848 3.22873 11.7904 3.35026 11.6081C3.47786 11.4197 3.66623 11.2739 3.91536 11.1706L17.6966 4.78125C18.0247 4.62934 18.3286 4.56554 18.6081 4.58984C18.8937 4.61415 19.1276 4.71137 19.3099 4.88151C19.4922 5.05165 19.6016 5.27344 19.638 5.54687C19.6745 5.81424 19.6137 6.12109 19.4557 6.46745L13.1029 20.1758C12.9813 20.4431 12.8234 20.6467 12.6289 20.7865C12.4405 20.9262 12.24 21.0052 12.0273 21.0234C11.8147 21.0477 11.6141 21.0143 11.4258 20.9232C11.2374 20.8381 11.0855 20.7014 10.9701 20.513C10.8546 20.3247 10.7969 20.0907 10.7969 19.8112L10.7786 13.6042C10.7786 13.5434 10.7665 13.5039 10.7422 13.4857C10.7179 13.4614 10.6784 13.4492 10.6237 13.4492L4.37109 13.4219Z" fill="white"/>
</svg>
