<svg width="24" height="24" viewBox="0 0 24 24" fill="none" xmlns="http://www.w3.org/2000/svg">
<g id="ico_minus">
<path id="&#244;&#128;&#133;&#189;" d="M5.78381 13.4987C5.60152 13.4987 5.43138 13.4531 5.2734 13.362C5.12149 13.2648 4.99388 13.1372 4.89058 12.9792C4.79336 12.8212 4.74475 12.645 4.74475 12.4505C4.74475 12.2622 4.79336 12.089 4.89058 11.931C4.99388 11.773 5.12149 11.6454 5.2734 11.5482C5.43138 11.451 5.60152 11.4023 5.78381 11.4023H18.2161C18.4895 11.4023 18.7296 11.5087 18.9362 11.7214C19.1428 11.928 19.2461 12.171 19.2461 12.4505C19.2461 12.7361 19.1428 12.9822 18.9362 13.1888C18.7296 13.3954 18.4895 13.4987 18.2161 13.4987H5.78381Z" fill="white"/>
</g>
</svg>
