<svg width="17" height="16" viewBox="0 0 17 16" fill="none" xmlns="http://www.w3.org/2000/svg">
<path d="M2.79004 15.7139C1.91113 15.7139 1.24609 15.4941 0.794922 15.0547C0.34375 14.6152 0.118164 13.9561 0.118164 13.0771V2.94336C0.118164 2.06445 0.34375 1.40527 0.794922 0.96582C1.24609 0.520508 1.91113 0.297852 2.79004 0.297852H14.1895C15.0801 0.297852 15.748 0.520508 16.1934 0.96582C16.6387 1.41113 16.8613 2.07031 16.8613 2.94336V13.0771C16.8613 13.9502 16.6387 14.6064 16.1934 15.0459C15.748 15.4912 15.0801 15.7139 14.1895 15.7139H2.79004ZM2.71973 14.2285H14.251C14.6084 14.2285 14.8838 14.1348 15.0771 13.9473C15.2764 13.7598 15.376 13.4756 15.376 13.0947V5.35156C15.376 4.97656 15.2764 4.69531 15.0771 4.50781C14.8838 4.32031 14.6084 4.22656 14.251 4.22656H2.71973C2.3623 4.22656 2.08984 4.32031 1.90234 4.50781C1.71484 4.69531 1.62109 4.97656 1.62109 5.35156V13.0947C1.62109 13.4756 1.71484 13.7598 1.90234 13.9473C2.08984 14.1348 2.3623 14.2285 2.71973 14.2285ZM4.16113 7.26758C4.00879 7.26758 3.88281 7.21777 3.7832 7.11816C3.68359 7.0127 3.63379 6.88672 3.63379 6.74023C3.63379 6.59961 3.68359 6.47949 3.7832 6.37988C3.88281 6.28027 4.00879 6.23047 4.16113 6.23047H12.8447C12.9912 6.23047 13.1143 6.28027 13.2139 6.37988C13.3135 6.47949 13.3633 6.59961 13.3633 6.74023C13.3633 6.88672 13.3135 7.0127 13.2139 7.11816C13.1143 7.21777 12.9912 7.26758 12.8447 7.26758H4.16113ZM4.16113 9.74609C4.00879 9.74609 3.88281 9.69922 3.7832 9.60547C3.68359 9.50586 3.63379 9.38281 3.63379 9.23633C3.63379 9.08984 3.68359 8.9668 3.7832 8.86719C3.88281 8.76172 4.00879 8.70898 4.16113 8.70898H12.8447C12.9912 8.70898 13.1143 8.76172 13.2139 8.86719C13.3135 8.9668 13.3633 9.08984 13.3633 9.23633C13.3633 9.38281 13.3135 9.50586 13.2139 9.60547C13.1143 9.69922 12.9912 9.74609 12.8447 9.74609H4.16113ZM4.16113 12.2246C4.00879 12.2246 3.88281 12.1777 3.7832 12.084C3.68359 11.9844 3.63379 11.8613 3.63379 11.7148C3.63379 11.5684 3.68359 11.4453 3.7832 11.3457C3.88281 11.2402 4.00879 11.1875 4.16113 11.1875H9.66309C9.80957 11.1875 9.93262 11.2402 10.0322 11.3457C10.1318 11.4453 10.1816 11.5684 10.1816 11.7148C10.1816 11.8613 10.1318 11.9844 10.0322 12.084C9.93262 12.1777 9.80957 12.2246 9.66309 12.2246H4.16113Z" fill="#151515"/>
</svg>
