<svg width="24" height="24" viewBox="0 0 24 24" fill="none" xmlns="http://www.w3.org/2000/svg">
<g id="ico_plus">
<path id="&#244;&#128;&#133;&#188;" d="M4.73572 12.4413C4.73572 12.1557 4.83902 11.9096 5.04561 11.703C5.25221 11.4964 5.4983 11.3931 5.78389 11.3931H10.9519V6.23429C10.9519 5.9487 11.0521 5.70261 11.2526 5.49601C11.4592 5.28334 11.7084 5.177 12 5.177C12.2917 5.177 12.5378 5.28334 12.7383 5.49601C12.9449 5.70261 13.0482 5.9487 13.0482 6.23429V11.3931H18.2162C18.5018 11.3931 18.7448 11.4964 18.9454 11.703C19.152 11.9096 19.2552 12.1557 19.2552 12.4413C19.2552 12.733 19.152 12.9821 18.9454 13.1887C18.7448 13.3953 18.5018 13.4986 18.2162 13.4986H13.0482V18.6575C13.0482 18.9431 12.9449 19.1892 12.7383 19.3958C12.5378 19.6023 12.2917 19.7056 12 19.7056C11.7084 19.7056 11.4592 19.6023 11.2526 19.3958C11.0521 19.1892 10.9519 18.9431 10.9519 18.6575V13.4986H5.78389C5.4983 13.4986 5.25221 13.3953 5.04561 13.1887C4.83902 12.9821 4.73572 12.733 4.73572 12.4413Z" fill="white"/>
</g>
</svg>
