<svg width="24" height="24" viewBox="0 0 24 24" fill="none" xmlns="http://www.w3.org/2000/svg">
<g id="ico_report">
<path id="icon" d="M8.26302 10.7279C8.10503 10.7279 7.96832 10.6701 7.85286 10.5547C7.74349 10.4392 7.6888 10.3025 7.6888 10.1445C7.6888 9.99262 7.74349 9.85894 7.85286 9.74349C7.96832 9.62804 8.10503 9.57031 8.26302 9.57031H15.7188C15.8767 9.57031 16.0104 9.62804 16.1198 9.74349C16.2352 9.85894 16.293 9.99262 16.293 10.1445C16.293 10.3025 16.2352 10.4392 16.1198 10.5547C16.0104 10.6701 15.8767 10.7279 15.7188 10.7279H8.26302ZM8.26302 13.7812C8.09896 13.7812 7.96224 13.7266 7.85286 13.6172C7.74349 13.5017 7.6888 13.362 7.6888 13.1979C7.6888 13.0399 7.74349 12.9062 7.85286 12.7969C7.96224 12.6875 8.09896 12.6328 8.26302 12.6328H15.7188C15.8828 12.6328 16.0195 12.6875 16.1289 12.7969C16.2383 12.9062 16.293 13.0399 16.293 13.1979C16.293 13.362 16.2383 13.5017 16.1289 13.6172C16.0195 13.7266 15.8828 13.7812 15.7188 13.7812H8.26302ZM8.26302 17.0078C8.10503 17.0078 7.96832 16.9501 7.85286 16.8346C7.74349 16.7192 7.6888 16.5825 7.6888 16.4245C7.6888 16.2665 7.74349 16.1328 7.85286 16.0234C7.96224 15.908 8.09896 15.8503 8.26302 15.8503H12.0547C12.2127 15.8503 12.3464 15.908 12.4557 16.0234C12.5712 16.1328 12.6289 16.2665 12.6289 16.4245C12.6289 16.5825 12.5712 16.7192 12.4557 16.8346C12.3464 16.9501 12.2127 17.0078 12.0547 17.0078H8.26302ZM7.41536 22.4401C6.50998 22.4401 5.82639 22.2031 5.36458 21.7292C4.90278 21.2613 4.67188 20.5716 4.67188 19.6602V6.58984C4.67188 5.69661 4.89366 5.01302 5.33724 4.53906C5.78689 4.0651 6.45226 3.82812 7.33333 3.82812H7.53385C7.5217 3.86458 7.51259 3.90712 7.50651 3.95573C7.50651 4.00434 7.50651 4.05599 7.50651 4.11068V4.90365C7.50651 5.07378 7.52474 5.22266 7.5612 5.35026H7.36068C6.98394 5.35026 6.69835 5.46571 6.50391 5.69661C6.30946 5.92752 6.21224 6.23437 6.21224 6.61719V19.6328C6.21224 20.0399 6.31858 20.3529 6.53125 20.5716C6.75 20.7904 7.06901 20.8997 7.48828 20.8997H16.4935C16.9188 20.8997 17.2378 20.7904 17.4505 20.5716C17.6693 20.3529 17.7786 20.0399 17.7786 19.6328V6.61719C17.7786 6.23437 17.6814 5.92752 17.487 5.69661C17.2925 5.46571 17.0039 5.35026 16.6211 5.35026H16.4297C16.4661 5.22266 16.4844 5.07378 16.4844 4.90365V4.11068C16.4844 4.05599 16.4813 4.00434 16.4753 3.95573C16.4753 3.90712 16.4692 3.86458 16.457 3.82812H16.6576C17.5326 3.82812 18.1918 4.0651 18.6354 4.53906C19.0851 5.01302 19.3099 5.69661 19.3099 6.58984V19.6602C19.3099 20.5716 19.079 21.2613 18.6172 21.7292C18.1554 22.2031 17.4718 22.4401 16.5664 22.4401H7.41536ZM9.33854 5.87891C9.07726 5.87891 8.8737 5.80295 8.72786 5.65104C8.58203 5.49913 8.50911 5.28646 8.50911 5.01302V4.11068C8.50911 3.83724 8.58203 3.62457 8.72786 3.47266C8.8737 3.31467 9.07726 3.23568 9.33854 3.23568H10.0859C10.1224 2.74349 10.3229 2.32422 10.6875 1.97786C11.0521 1.62543 11.4865 1.44922 11.9909 1.44922C12.5013 1.44922 12.9358 1.62543 13.2943 1.97786C13.6589 2.32422 13.8594 2.74349 13.8958 3.23568H14.6523C14.9076 3.23568 15.1081 3.31467 15.2539 3.47266C15.3997 3.62457 15.4727 3.83724 15.4727 4.11068V5.01302C15.4727 5.28646 15.3997 5.49913 15.2539 5.65104C15.1081 5.80295 14.9076 5.87891 14.6523 5.87891H9.33854ZM11.9909 4.05599C12.2036 4.05599 12.3828 3.98307 12.5286 3.83724C12.6745 3.68533 12.7474 3.50911 12.7474 3.30859C12.7474 3.09592 12.6745 2.91667 12.5286 2.77083C12.3828 2.61892 12.2036 2.54297 11.9909 2.54297C11.7782 2.54297 11.599 2.61892 11.4531 2.77083C11.3073 2.91667 11.2344 3.09592 11.2344 3.30859C11.2344 3.50911 11.3073 3.68533 11.4531 3.83724C11.599 3.98307 11.7782 4.05599 11.9909 4.05599Z" fill="#8496A8"/>
</g>
</svg>
