<svg width="24" height="24" viewBox="0 0 24 24" fill="none" xmlns="http://www.w3.org/2000/svg">
<g id="ico_rotate">
<path id="icon" d="M1.5456 12.4596L3.5417 9.64315C3.69361 9.43047 3.86678 9.32414 4.06123 9.32414C4.26175 9.32414 4.43493 9.43047 4.58076 9.64315L6.58597 12.4687C6.76218 12.7178 6.81079 12.9396 6.7318 13.134C6.65281 13.3285 6.45229 13.4257 6.13024 13.4257H4.84508C4.96053 14.3129 5.22182 15.1332 5.62894 15.8866C6.04213 16.6401 6.56774 17.3024 7.20576 17.8736C7.84986 18.4448 8.57902 18.8884 9.39326 19.2043C10.2075 19.5264 11.0764 19.6874 12 19.6874C13.0695 19.6874 14.066 19.4717 14.9896 19.0403C15.9193 18.6089 16.7123 18.0255 17.3685 17.2903C17.5447 17.108 17.7361 17.0077 17.9427 16.9895C18.1554 16.9652 18.3499 17.026 18.5261 17.1718C18.6962 17.3116 18.7843 17.4938 18.7904 17.7187C18.8025 17.9435 18.7175 18.1531 18.5352 18.3476C17.7331 19.2469 16.767 19.9639 15.6367 20.4986C14.5065 21.0333 13.2943 21.3007 12 21.3007C10.8698 21.3007 9.80038 21.0971 8.7917 20.69C7.78302 20.2829 6.88067 19.7208 6.08467 19.0038C5.28866 18.2868 4.63848 17.4513 4.13414 16.4973C3.6298 15.5433 3.31687 14.5194 3.19534 13.4257H2.00133C1.67321 13.4257 1.46965 13.3285 1.39065 13.134C1.31774 12.9396 1.36939 12.7148 1.5456 12.4596ZM5.4831 6.53507C6.28519 5.63577 7.24829 4.92179 8.37243 4.39315C9.50263 3.85843 10.7118 3.59106 12 3.59106C13.1302 3.59106 14.1997 3.79462 15.2084 4.20174C16.217 4.60886 17.1194 5.17093 17.9154 5.88794C18.7114 6.60495 19.3585 7.44046 19.8568 8.39445C20.3611 9.34844 20.6741 10.3723 20.7956 11.4661H21.9987C22.3208 11.4661 22.5213 11.5633 22.6003 11.7577C22.6854 11.9522 22.6367 12.177 22.4545 12.4322L20.4492 15.2486C20.3034 15.4613 20.1302 15.5676 19.9297 15.5676C19.7292 15.5616 19.556 15.4552 19.4102 15.2486L17.4141 12.4231C17.2318 12.174 17.1832 11.9522 17.2683 11.7577C17.3533 11.5633 17.5538 11.4661 17.8698 11.4661H19.155C19.0395 10.585 18.7752 9.76468 18.362 9.00513C17.9549 8.24558 17.4293 7.58325 16.7852 7.01815C16.1472 6.44697 15.421 6.00339 14.6068 5.68742C13.7926 5.37145 12.9236 5.21346 12 5.21346C10.9306 5.21346 9.93406 5.42917 9.01045 5.8606C8.08684 6.28594 7.29691 6.8632 6.64066 7.59237C6.46444 7.77466 6.27 7.87492 6.05732 7.89315C5.84465 7.91138 5.65324 7.85061 5.4831 7.71086C5.31296 7.5711 5.22182 7.38881 5.20967 7.16398C5.20359 6.93915 5.29473 6.72952 5.4831 6.53507Z" fill="#8496A8"/>
</g>
</svg>
