<svg width="24" height="24" viewBox="0 0 24 24" fill="none" xmlns="http://www.w3.org/2000/svg">
<g id="ico_services">
<path id="&#244;&#128;&#173;&#135;" d="M1.875 12.2188C1.875 10.8369 2.13889 9.5348 2.66667 8.31258C3.19444 7.09036 3.92361 6.01397 4.85417 5.08341C5.79167 4.15286 6.86806 3.42369 8.08333 2.89591C9.30556 2.36814 10.6076 2.10425 11.9896 2.10425C13.3715 2.10425 14.6736 2.36814 15.8958 2.89591C17.1181 3.42369 18.1944 4.15286 19.125 5.08341C20.0556 6.01397 20.7847 7.09036 21.3125 8.31258C21.8472 9.5348 22.1146 10.8369 22.1146 12.2188C22.1146 12.5313 22.0243 12.7709 21.8438 12.9376C21.6632 13.1042 21.4583 13.1876 21.2292 13.1876C20.9931 13.1876 20.7708 13.1042 20.5625 12.9376C20.3611 12.7709 20.2604 12.5313 20.2604 12.2188C20.2604 11.073 20.0486 10.0001 19.625 9.00008C19.2014 8.00008 18.6111 7.12161 17.8542 6.36467C17.0972 5.60772 16.2153 5.01744 15.2083 4.59383C14.2083 4.17022 13.1354 3.95841 11.9896 3.95841C10.8438 3.95841 9.77083 4.17022 8.77083 4.59383C7.77778 5.01744 6.90278 5.60772 6.14583 6.36467C5.38889 7.12161 4.79861 8.00008 4.375 9.00008C3.95139 10.0001 3.73958 11.073 3.73958 12.2188C3.73958 13.2605 3.91319 14.2431 4.26042 15.1667C4.61458 16.0834 5.10417 16.9063 5.72917 17.6355C6.35417 18.3577 7.06944 18.9445 7.875 19.3959C8.11806 19.5348 8.28125 19.698 8.36458 19.8855C8.45486 20.0799 8.47569 20.2674 8.42708 20.448C8.38542 20.6355 8.29514 20.7917 8.15625 20.9167C8.02431 21.0487 7.85764 21.1251 7.65625 21.1459C7.46181 21.1737 7.25 21.1251 7.02083 21.0001C6.03472 20.4515 5.15278 19.7327 4.375 18.8438C3.59722 17.9549 2.98611 16.9445 2.54167 15.8126C2.09722 14.6806 1.875 13.4827 1.875 12.2188ZM5.94792 12.2188C5.94792 11.3855 6.10417 10.6042 6.41667 9.87508C6.73611 9.14592 7.17361 8.50355 7.72917 7.948C8.29167 7.39244 8.93403 6.95842 9.65625 6.64592C10.3854 6.32647 11.1667 6.16675 12 6.16675C12.8194 6.16675 13.5938 6.32647 14.3229 6.64592C15.059 6.95842 15.7049 7.39244 16.2604 7.948C16.8229 8.50355 17.2604 9.14592 17.5729 9.87508C17.8854 10.5973 18.0417 11.3681 18.0417 12.1876C18.0417 12.4376 17.9549 12.6494 17.7812 12.823C17.6146 12.9897 17.4097 13.073 17.1667 13.073C16.9306 13.073 16.7292 12.9897 16.5625 12.823C16.3958 12.6563 16.3021 12.448 16.2812 12.198C16.2535 11.3994 16.0486 10.6806 15.6667 10.0417C15.2847 9.39592 14.7743 8.88203 14.1354 8.50008C13.4965 8.11814 12.7847 7.92717 12 7.92717C11.2014 7.92717 10.4792 8.11814 9.83333 8.50008C9.1875 8.88203 8.67014 9.39939 8.28125 10.0522C7.89931 10.698 7.70833 11.4202 7.70833 12.2188C7.70833 12.9688 7.88542 13.6563 8.23958 14.2813C8.59375 14.9063 9.0625 15.4098 9.64583 15.7917C9.86806 15.9584 9.98611 16.1529 10 16.3751C10.0208 16.5973 9.96528 16.8022 9.83333 16.9897C9.70139 17.1702 9.52083 17.2883 9.29167 17.3438C9.0625 17.3924 8.81597 17.3265 8.55208 17.1459C8.07986 16.8473 7.64583 16.4515 7.25 15.9584C6.85417 15.4654 6.53819 14.9029 6.30208 14.2709C6.06597 13.632 5.94792 12.948 5.94792 12.2188ZM11.7917 18.9584L11.8958 10.0834C11.9028 9.85425 11.9965 9.70842 12.1771 9.64592C12.3576 9.57647 12.5208 9.61814 12.6667 9.77092L18.7708 16.0313C18.9306 16.198 18.9688 16.3716 18.8854 16.5522C18.8021 16.7258 18.6493 16.8161 18.4271 16.823L16.0729 16.8959L18.0312 21.4584C18.0868 21.5695 18.0972 21.6806 18.0625 21.7917C18.0278 21.9098 17.9549 21.9966 17.8438 22.0522L16.7188 22.5001C16.6007 22.5417 16.4861 22.5348 16.375 22.4792C16.2639 22.4237 16.191 22.3404 16.1562 22.2292L14.2812 17.6042L12.6354 19.2813C12.4757 19.4272 12.2951 19.4688 12.0938 19.4063C11.8924 19.3438 11.7917 19.1945 11.7917 18.9584Z" fill="#8496A8"/>
</g>
</svg>
