<svg width="12" height="21" viewBox="0 0 12 21" fill="none" xmlns="http://www.w3.org/2000/svg">
<path d="M11.979 10.6626C11.979 10.8335 11.9465 10.9963 11.8813 11.1509C11.8162 11.2974 11.7145 11.4357 11.5762 11.5659L2.50635 20.4404C2.27848 20.6764 1.99772 20.7944 1.66406 20.7944C1.42806 20.7944 1.22054 20.7415 1.0415 20.6357C0.862467 20.5299 0.715983 20.3835 0.602051 20.1963C0.496257 20.0173 0.443359 19.8138 0.443359 19.5859C0.443359 19.2604 0.56543 18.9756 0.80957 18.7314L9.06152 10.6626L0.80957 2.59375C0.56543 2.34961 0.443359 2.06478 0.443359 1.73926C0.443359 1.50326 0.496257 1.29574 0.602051 1.1167C0.715983 0.937663 0.862467 0.795247 1.0415 0.689453C1.22054 0.583659 1.42806 0.530762 1.66406 0.530762C1.99772 0.530762 2.27848 0.648763 2.50635 0.884766L11.5762 9.75928C11.7145 9.88949 11.8162 10.0319 11.8813 10.1865C11.9465 10.333 11.979 10.4917 11.979 10.6626Z" fill="black"/>
</svg>
