<svg width="24" height="24" viewBox="0 0 24 24" fill="none" xmlns="http://www.w3.org/2000/svg">
<g id="ico_tele">
<path id="&#244;&#128;&#135;&#177;" d="M12.0001 1.67383C12.2086 1.67383 12.3802 1.74447 12.5147 1.88574C12.656 2.02702 12.7266 2.20193 12.7266 2.41048V5.80111C12.7266 5.9962 12.656 6.16775 12.5147 6.31576C12.3802 6.45703 12.2086 6.52767 12.0001 6.52767C11.7915 6.52767 11.6166 6.45703 11.4753 6.31576C11.3341 6.16775 11.2634 5.9962 11.2634 5.80111V2.41048C11.2634 2.20193 11.3341 2.02702 11.4753 1.88574C11.6166 1.74447 11.7915 1.67383 12.0001 1.67383ZM17.3988 3.11686C17.5738 3.21777 17.6848 3.36578 17.7319 3.56087C17.7789 3.75597 17.752 3.94097 17.6511 4.11589L15.9558 7.05241C15.8482 7.23405 15.7002 7.35178 15.5118 7.4056C15.3234 7.45269 15.1418 7.42578 14.9669 7.32487C14.7852 7.21723 14.6675 7.06923 14.6137 6.88086C14.5666 6.69249 14.5935 6.50749 14.6944 6.32585L16.3998 3.38932C16.5007 3.21441 16.6454 3.10004 16.8337 3.04622C17.0221 2.9924 17.2105 3.01595 17.3988 3.11686ZM21.3445 7.07259C21.4387 7.2475 21.4588 7.42915 21.405 7.61751C21.3512 7.80588 21.2402 7.95388 21.072 8.06152L18.1254 9.75684C17.9438 9.85775 17.7588 9.88466 17.5704 9.83757C17.3888 9.78375 17.2475 9.66938 17.1466 9.49447C17.0322 9.31283 17.0019 9.12782 17.0557 8.93945C17.1096 8.74436 17.2239 8.59299 17.3988 8.48535L20.3354 6.80013C20.517 6.69922 20.702 6.67567 20.8904 6.72949C21.0855 6.77658 21.2368 6.89095 21.3445 7.07259ZM22.7774 12.4512C22.7774 12.6597 22.7068 12.8346 22.5655 12.9759C22.4242 13.1105 22.2527 13.1777 22.0509 13.1777H18.6501C18.4483 13.1777 18.2768 13.1105 18.1355 12.9759C17.9942 12.8346 17.9236 12.6597 17.9236 12.4512C17.9236 12.2493 17.9942 12.0812 18.1355 11.9466C18.2768 11.8053 18.4483 11.7347 18.6501 11.7347H22.0509C22.2527 11.7347 22.4242 11.8053 22.5655 11.9466C22.7068 12.0812 22.7774 12.2493 22.7774 12.4512ZM21.3344 17.8398C21.2335 18.0282 21.0855 18.1459 20.8904 18.193C20.702 18.2401 20.517 18.2132 20.3354 18.1123L17.3988 16.417C17.2239 16.3161 17.1096 16.1714 17.0557 15.9831C17.0087 15.788 17.0356 15.5996 17.1365 15.418C17.2374 15.2363 17.382 15.122 17.5704 15.0749C17.7588 15.0278 17.9438 15.0547 18.1254 15.1556L21.072 16.8509C21.2402 16.9586 21.3512 17.1066 21.405 17.2949C21.4588 17.4833 21.4353 17.6649 21.3344 17.8398ZM17.3888 21.7956C17.2071 21.8965 17.0221 21.92 16.8337 21.8662C16.6454 21.8191 16.5007 21.7048 16.3998 21.5231L14.6944 18.5765C14.6002 18.4083 14.5767 18.2267 14.6238 18.0316C14.6709 17.8365 14.7852 17.6885 14.9669 17.5876C15.1418 17.4799 15.3234 17.453 15.5118 17.5068C15.7069 17.5607 15.8549 17.6784 15.9558 17.86L17.6511 20.7966C17.752 20.9715 17.7756 21.1565 17.7218 21.3516C17.6747 21.5467 17.5637 21.6947 17.3888 21.7956ZM12.0001 23.2386C11.7915 23.2386 11.6166 23.168 11.4753 23.0267C11.3341 22.8854 11.2634 22.7105 11.2634 22.502V19.1214C11.2634 18.9129 11.3341 18.738 11.4753 18.5967C11.6166 18.4554 11.7915 18.3848 12.0001 18.3848C12.2086 18.3848 12.3802 18.4554 12.5147 18.5967C12.656 18.738 12.7266 18.9129 12.7266 19.1214V22.502C12.7266 22.7105 12.656 22.8854 12.5147 23.0267C12.3802 23.168 12.2086 23.2386 12.0001 23.2386ZM6.61141 21.7956C6.42977 21.6947 6.31204 21.5467 6.25822 21.3516C6.21113 21.1565 6.23804 20.9715 6.33895 20.7966L8.03426 17.86C8.1419 17.6784 8.2899 17.564 8.47827 17.5169C8.67337 17.4631 8.85837 17.4867 9.03328 17.5876C9.21493 17.6952 9.32929 17.8466 9.37638 18.0417C9.4302 18.23 9.40666 18.4117 9.30575 18.5866L7.60034 21.5231C7.49943 21.7048 7.35143 21.8191 7.15633 21.8662C6.96796 21.92 6.78632 21.8965 6.61141 21.7956ZM2.66577 17.8398C2.55813 17.6649 2.53122 17.4833 2.58504 17.2949C2.63886 17.1066 2.75323 16.9586 2.92814 16.8509L5.87476 15.1556C6.04967 15.0547 6.23131 15.0311 6.41968 15.085C6.61477 15.1321 6.76614 15.2464 6.87378 15.4281C6.97469 15.603 6.99824 15.788 6.94442 15.9831C6.8906 16.1714 6.77623 16.3161 6.60132 16.417L3.6547 18.1123C3.47979 18.2132 3.29479 18.2401 3.09969 18.193C2.91132 18.1459 2.76668 18.0282 2.66577 17.8398ZM1.21265 12.4512C1.21265 12.2493 1.28328 12.0812 1.42456 11.9466C1.57256 11.8053 1.74411 11.7347 1.93921 11.7347H5.33993C5.54175 11.7347 5.7133 11.8053 5.85457 11.9466C6.00258 12.0812 6.07658 12.2493 6.07658 12.4512C6.07658 12.6597 6.00258 12.8346 5.85457 12.9759C5.7133 13.1105 5.54175 13.1777 5.33993 13.1777H1.93921C1.74411 13.1777 1.57256 13.1105 1.42456 12.9759C1.28328 12.8346 1.21265 12.6597 1.21265 12.4512ZM2.66577 7.05241C2.76668 6.88422 2.91132 6.77658 3.09969 6.72949C3.29479 6.67567 3.47979 6.69922 3.6547 6.80013L6.60132 8.48535C6.77623 8.59299 6.88723 8.74436 6.93433 8.93945C6.98815 9.12782 6.96796 9.31283 6.87378 9.49447C6.76614 9.66938 6.61477 9.78375 6.41968 9.83757C6.23131 9.88466 6.04967 9.85775 5.87476 9.75684L2.92814 8.06152C2.75323 7.95388 2.63886 7.80588 2.58504 7.61751C2.53122 7.42915 2.55813 7.24078 2.66577 7.05241ZM6.61141 3.11686C6.78632 3.01595 6.96796 2.9924 7.15633 3.04622C7.35143 3.10004 7.49943 3.21441 7.60034 3.38932L9.30575 6.32585C9.40666 6.50749 9.4302 6.69249 9.37638 6.88086C9.32929 7.06923 9.21156 7.21723 9.02319 7.32487C8.85501 7.42578 8.67337 7.45269 8.47827 7.4056C8.2899 7.35178 8.1419 7.23405 8.03426 7.05241L6.33895 4.11589C6.23804 3.94097 6.21113 3.75597 6.25822 3.56087C6.31204 3.36578 6.42977 3.21777 6.61141 3.11686Z" fill="#8496A8"/>
</g>
</svg>
