<svg width="24" height="24" viewBox="0 0 24 24" fill="none" xmlns="http://www.w3.org/2000/svg">
<g id="Chevrone">
<path id="Vector 1" d="M11.2072 15.119L7.60221 11.1135C7.09462 10.5495 6.84083 10.2675 6.83082 10.0277C6.82212 9.81945 6.91136 9.61908 7.07199 9.48621C7.25692 9.33325 7.6363 9.33325 8.39505 9.33325L15.6049 9.33325C16.3637 9.33325 16.7431 9.33325 16.928 9.48621C17.0886 9.61909 17.1779 9.81945 17.1692 10.0277C17.1592 10.2675 16.9054 10.5495 16.3978 11.1135L12.7928 15.119C12.5183 15.4241 12.381 15.5766 12.2193 15.6329C12.0773 15.6824 11.9227 15.6824 11.7807 15.6329C11.619 15.5766 11.4817 15.4241 11.2072 15.119Z" fill="#8496A8"/>
</g>
</svg>
