<svg width="26" height="24" viewBox="0 0 26 24" fill="none" xmlns="http://www.w3.org/2000/svg">
<g>
<path d="M3.90625 20.8451C3.16493 20.8451 2.51476 20.6992 1.95573 20.4076C1.3967 20.1159 0.96224 19.7118 0.652344 19.1953C0.342448 18.6788 0.1875 18.0924 0.1875 17.4362C0.1875 16.6402 0.409288 15.9475 0.852865 15.3581C1.29644 14.7687 1.88281 14.3585 2.61198 14.1276C2.71528 13.1797 3.02821 12.326 3.55078 11.5664C4.07335 10.8008 4.73872 10.1962 5.54687 9.7526C6.35503 9.30903 7.23611 9.08724 8.1901 9.08724C9.2717 9.08724 10.2439 9.35764 11.1068 9.89844C11.9757 10.4392 12.6623 11.1806 13.1667 12.1224C14.0356 12.1406 14.8134 12.3411 15.5 12.724C16.1927 13.1007 16.7396 13.6142 17.1406 14.2643C17.5417 14.9145 17.7422 15.6467 17.7422 16.4609C17.7422 17.2873 17.5417 18.0317 17.1406 18.694C16.7457 19.3563 16.2079 19.8789 15.5273 20.2617C14.8529 20.6506 14.0964 20.8451 13.2578 20.8451H3.90625ZM3.87891 19.3594H13.276C13.8351 19.3594 14.3394 19.2318 14.7891 18.9766C15.2387 18.7214 15.5942 18.378 15.8555 17.9466C16.1168 17.5152 16.2474 17.0352 16.2474 16.5065C16.2474 15.9779 16.1137 15.4948 15.8464 15.0573C15.579 14.6137 15.1871 14.2582 14.6706 13.9909C14.1602 13.7235 13.5312 13.5898 12.7839 13.5898C12.559 13.5898 12.3858 13.5534 12.2643 13.4805C12.1428 13.4076 12.0334 13.2769 11.9362 13.0885C11.6628 12.5599 11.3407 12.1072 10.9701 11.7305C10.5994 11.3537 10.1801 11.0681 9.71224 10.8737C9.25043 10.6732 8.74306 10.5729 8.1901 10.5729C7.66146 10.5729 7.16016 10.6732 6.6862 10.8737C6.21224 11.0742 5.78993 11.3598 5.41927 11.7305C5.05469 12.0951 4.75391 12.5295 4.51693 13.0339C4.28602 13.5321 4.14019 14.0881 4.07943 14.7018C4.0612 14.9145 4.00651 15.0786 3.91536 15.194C3.83029 15.3034 3.68142 15.3854 3.46875 15.4401C2.83681 15.6102 2.37804 15.8776 2.09245 16.2422C1.81293 16.6068 1.67318 17.0169 1.67318 17.4727C1.67318 18.0013 1.86154 18.4479 2.23828 18.8125C2.61502 19.1771 3.16189 19.3594 3.87891 19.3594ZM16.4753 9.27865C15.9284 9.27865 15.4332 9.40929 14.9896 9.67057C14.546 9.92578 14.1936 10.2782 13.9323 10.7279C13.6771 11.1714 13.5495 11.6636 13.5495 12.2044C13.5495 12.2895 13.5525 12.3746 13.5586 12.4596C13.5707 12.5386 13.5859 12.6146 13.6042 12.6875L12.2096 12.5964C12.2036 12.5356 12.1975 12.4748 12.1914 12.4141C12.1853 12.3472 12.1823 12.2804 12.1823 12.2135C12.1823 11.4175 12.3737 10.6944 12.7565 10.0443C13.1393 9.3941 13.6558 8.8776 14.306 8.49479C14.9562 8.1059 15.6793 7.91146 16.4753 7.91146C17.2713 7.91146 17.9913 8.1059 18.6354 8.49479C19.2856 8.8776 19.8021 9.3941 20.1849 10.0443C20.5677 10.6944 20.7591 11.4175 20.7591 12.2135C20.7591 12.9123 20.6072 13.5595 20.3034 14.1549C20.0056 14.7444 19.5955 15.2396 19.0729 15.6406C18.5503 16.0417 17.9579 16.309 17.2956 16.4427L17.2865 15.0573C17.6936 14.9358 18.0582 14.7383 18.3802 14.4648C18.7023 14.1853 18.9514 13.8542 19.1276 13.4714C19.3099 13.0825 19.401 12.6602 19.401 12.2044C19.401 11.6636 19.2704 11.1714 19.0091 10.7279C18.7478 10.2782 18.3954 9.92578 17.9518 9.67057C17.5143 9.40929 17.0221 9.27865 16.4753 9.27865ZM11.4076 8.21224L10.1224 6.91797C9.97656 6.77214 9.90365 6.59592 9.90365 6.38932C9.90365 6.18273 9.97656 6.00651 10.1224 5.86068C10.2682 5.72092 10.4444 5.65104 10.651 5.65104C10.8576 5.65104 11.0339 5.72092 11.1797 5.86068L12.474 7.16406C12.6137 7.3099 12.6836 7.48611 12.6836 7.69271C12.6836 7.89931 12.6137 8.07248 12.474 8.21224C12.3342 8.35807 12.158 8.43403 11.9453 8.4401C11.7326 8.4401 11.5534 8.36415 11.4076 8.21224ZM16.4753 6.55339C16.2626 6.55339 16.0833 6.47743 15.9375 6.32552C15.7917 6.17361 15.7187 6.00043 15.7187 5.80599V3.97396C15.7187 3.77344 15.7917 3.60026 15.9375 3.45443C16.0833 3.30252 16.2626 3.22656 16.4753 3.22656C16.6819 3.22656 16.8581 3.30252 17.0039 3.45443C17.1558 3.60026 17.2318 3.77344 17.2318 3.97396V5.80599C17.2318 6.00043 17.1558 6.17361 17.0039 6.32552C16.8581 6.47743 16.6819 6.55339 16.4753 6.55339ZM20.4766 8.21224C20.3368 8.07248 20.2639 7.89931 20.2578 7.69271C20.2578 7.48611 20.3307 7.3099 20.4766 7.16406L21.7708 5.86068C21.9227 5.72092 22.099 5.65104 22.2995 5.65104C22.5061 5.65104 22.6823 5.72092 22.8281 5.86068C22.9679 6.00651 23.0378 6.18273 23.0378 6.38932C23.0438 6.59592 22.974 6.77214 22.8281 6.91797L21.543 8.21224C21.3911 8.36415 21.2088 8.4401 20.9961 8.4401C20.7895 8.43403 20.6163 8.35807 20.4766 8.21224ZM22.8737 12.9609C22.6732 12.9609 22.497 12.888 22.3451 12.7422C22.1992 12.5964 22.1263 12.4201 22.1263 12.2135C22.1263 12.0069 22.1992 11.8307 22.3451 11.6849C22.497 11.5391 22.6732 11.4661 22.8737 11.4661H24.6966C24.9032 11.4661 25.0794 11.5391 25.2253 11.6849C25.3711 11.8307 25.444 12.0069 25.444 12.2135C25.444 12.4201 25.3711 12.5964 25.2253 12.7422C25.0794 12.888 24.9032 12.9609 24.6966 12.9609H22.8737ZM21.7708 18.5755L20.4766 17.2812C20.3307 17.1354 20.2548 16.9592 20.2487 16.7526C20.2487 16.5399 20.3247 16.3637 20.4766 16.224C20.6224 16.0781 20.7956 16.0082 20.9961 16.0143C21.2027 16.0143 21.3789 16.0842 21.5247 16.224L22.8281 17.5182C22.974 17.658 23.0438 17.8312 23.0378 18.0378C23.0378 18.2444 22.9679 18.4206 22.8281 18.5664C22.6823 18.7122 22.5061 18.7852 22.2995 18.7852C22.0929 18.7852 21.9167 18.7153 21.7708 18.5755Z" fill="#8496A8"/>
</g>
</svg>
