<svg width="68" height="68" viewBox="0 0 68 68" fill="none" xmlns="http://www.w3.org/2000/svg">
<g id="Big Icon">
<rect width="68" height="68" rx="10" fill="#B2C1CF"/>
<path id="Rectangle 1009" d="M50.7649 8.41309H17.2356L8.41211 59.5901H59.5884L50.9999 9" stroke="white" stroke-dasharray="5.29 5.29"/>
<g id="Union">
<mask id="path-3-inside-1_65_686" fill="white">
<path fill-rule="evenodd" clip-rule="evenodd" d="M17.2354 12.8236C19.6719 12.8236 21.6471 10.8483 21.6471 8.41177C21.6471 5.97519 19.6719 3.99996 17.2354 3.99996C14.7988 3.99996 12.8236 5.97519 12.8236 8.41177C12.8236 10.8483 14.7988 12.8236 17.2354 12.8236ZM50.7647 12.8236C53.2012 12.8236 55.1764 10.8483 55.1764 8.41177C55.1764 5.97519 53.2012 3.99996 50.7647 3.99996C48.3281 3.99996 46.3529 5.97519 46.3529 8.41177C46.3529 10.8483 48.3281 12.8236 50.7647 12.8236ZM64 59.5886C64 62.0251 62.0248 64.0004 59.5883 64.0004C57.1517 64.0004 55.1765 62.0251 55.1765 59.5886C55.1765 57.152 57.1517 55.1768 59.5883 55.1768C62.0248 55.1768 64 57.152 64 59.5886ZM8.41175 64.0004C10.8483 64.0004 12.8235 62.0251 12.8235 59.5886C12.8235 57.152 10.8483 55.1768 8.41175 55.1768C5.97521 55.1768 4 57.152 4 59.5886C4 62.0251 5.97521 64.0004 8.41175 64.0004Z"/>
</mask>
<path fill-rule="evenodd" clip-rule="evenodd" d="M17.2354 12.8236C19.6719 12.8236 21.6471 10.8483 21.6471 8.41177C21.6471 5.97519 19.6719 3.99996 17.2354 3.99996C14.7988 3.99996 12.8236 5.97519 12.8236 8.41177C12.8236 10.8483 14.7988 12.8236 17.2354 12.8236ZM50.7647 12.8236C53.2012 12.8236 55.1764 10.8483 55.1764 8.41177C55.1764 5.97519 53.2012 3.99996 50.7647 3.99996C48.3281 3.99996 46.3529 5.97519 46.3529 8.41177C46.3529 10.8483 48.3281 12.8236 50.7647 12.8236ZM64 59.5886C64 62.0251 62.0248 64.0004 59.5883 64.0004C57.1517 64.0004 55.1765 62.0251 55.1765 59.5886C55.1765 57.152 57.1517 55.1768 59.5883 55.1768C62.0248 55.1768 64 57.152 64 59.5886ZM8.41175 64.0004C10.8483 64.0004 12.8235 62.0251 12.8235 59.5886C12.8235 57.152 10.8483 55.1768 8.41175 55.1768C5.97521 55.1768 4 57.152 4 59.5886C4 62.0251 5.97521 64.0004 8.41175 64.0004Z" fill="white"/>
<path d="M19.8824 8.41181C19.8824 9.87379 18.6973 11.0589 17.2354 11.0589V14.5883C20.6466 14.5883 23.4118 11.823 23.4118 8.41181H19.8824ZM17.2354 5.76471C18.6973 5.76471 19.8824 6.94984 19.8824 8.41181H23.4118C23.4118 5.00064 20.6466 2.23529 17.2354 2.23529V5.76471ZM14.5883 8.41181C14.5883 6.94984 15.7735 5.76471 17.2354 5.76471V2.23529C13.8242 2.23529 11.0589 5.00064 11.0589 8.41181H14.5883ZM17.2354 11.0589C15.7735 11.0589 14.5883 9.87379 14.5883 8.41181H11.0589C11.0589 11.823 13.8242 14.5883 17.2354 14.5883V11.0589ZM53.4117 8.41181C53.4117 9.87379 52.2266 11.0589 50.7647 11.0589V14.5883C54.1758 14.5883 56.9411 11.823 56.9411 8.41181H53.4117ZM50.7647 5.76471C52.2266 5.76471 53.4117 6.94984 53.4117 8.41181H56.9411C56.9411 5.00064 54.1758 2.23529 50.7647 2.23529V5.76471ZM48.1176 8.41181C48.1176 6.94984 49.3028 5.76471 50.7647 5.76471V2.23529C47.3535 2.23529 44.5882 5.00064 44.5882 8.41181H48.1176ZM50.7647 11.0589C49.3028 11.0589 48.1176 9.87379 48.1176 8.41181H44.5882C44.5882 11.823 47.3535 14.5883 50.7647 14.5883V11.0589ZM59.5883 65.7651C62.9995 65.7651 65.7647 62.9998 65.7647 59.5886H62.2353C62.2353 61.0506 61.0502 62.2357 59.5883 62.2357V65.7651ZM53.4118 59.5886C53.4118 62.9998 56.1771 65.7651 59.5883 65.7651V62.2357C58.1264 62.2357 56.9412 61.0506 56.9412 59.5886H53.4118ZM59.5883 53.4121C56.1771 53.4121 53.4118 56.1774 53.4118 59.5886H56.9412C56.9412 58.1266 58.1264 56.9415 59.5883 56.9415V53.4121ZM65.7647 59.5886C65.7647 56.1774 62.9995 53.4121 59.5883 53.4121V56.9415C61.0502 56.9415 62.2353 58.1266 62.2353 59.5886H65.7647ZM11.0588 59.5886C11.0588 61.0506 9.87364 62.2357 8.41175 62.2357V65.7651C11.8229 65.7651 14.5882 62.9998 14.5882 59.5886H11.0588ZM8.41175 56.9415C9.87364 56.9415 11.0588 58.1266 11.0588 59.5886H14.5882C14.5882 56.1774 11.8229 53.4121 8.41175 53.4121V56.9415ZM5.76471 59.5886C5.76471 58.1266 6.94985 56.9415 8.41175 56.9415V53.4121C5.00056 53.4121 2.23529 56.1774 2.23529 59.5886H5.76471ZM8.41175 62.2357C6.94986 62.2357 5.76471 61.0506 5.76471 59.5886H2.23529C2.23529 62.9998 5.00056 65.7651 8.41175 65.7651V62.2357Z" fill="#B2C1CF" mask="url(#path-3-inside-1_65_686)"/>
</g>
<path id="&#244;&#128;&#136;&#138;" d="M27.309 42.8817L24.5379 43.9456C24.3894 44.0033 24.2492 43.9662 24.1172 43.8343C23.9935 43.7023 23.9605 43.558 24.0183 43.4013L25.1564 40.7167L38.1338 27.7515L40.2864 29.9165L27.309 42.8817ZM41.3627 28.8649L39.1853 26.6876L40.4224 25.4875C40.7276 25.1906 41.041 25.0298 41.3627 25.005C41.6843 24.9803 41.9812 25.104 42.2534 25.3762L42.6864 25.8092C42.9585 26.0896 43.0864 26.3906 43.0699 26.7123C43.0616 27.0339 42.9049 27.3474 42.5998 27.6525L41.3627 28.8649Z" fill="white"/>
</g>
</svg>
