<svg width="68" height="68" viewBox="0 0 68 68" fill="none" xmlns="http://www.w3.org/2000/svg">
<rect width="68" height="68" rx="10" fill="#B2C1CF"/>
<path fill-rule="evenodd" clip-rule="evenodd" d="M21 4C20.4477 4 20 4.44771 20 5V20L5 20C4.44772 20 4 20.4477 4 21C4 21.5523 4.44771 22 5 22H20V46H5C4.44772 46 4 46.4477 4 47C4 47.5523 4.44771 48 5 48H20V63C20 63.5523 20.4477 64 21 64C21.5523 64 22 63.5523 22 63V48L46 48V63C46 63.5523 46.4477 64 47 64C47.5523 64 48 63.5523 48 63V48H63C63.5523 48 64 47.5523 64 47C64 46.4477 63.5523 46 63 46H48V22H63C63.5523 22 64 21.5523 64 21C64 20.4477 63.5523 20 63 20L48 20V5C48 4.44772 47.5523 4 47 4C46.4477 4 46 4.44771 46 5V20L22 20V5C22 4.44772 21.5523 4 21 4ZM46 46V22L22 22V46L46 46Z" fill="white"/>
<path d="M33.3872 51.1695L34 51.7823L34.6128 51.1695L43.8052 41.9772L43.8052 41.9772C49.2205 36.5619 49.2205 27.7821 43.8052 22.3669L43.1924 22.9797L43.8052 22.3669C38.3899 16.9517 29.6101 16.9516 24.1948 22.3669C18.7795 27.7821 18.7795 36.5619 24.1948 41.9772L24.8076 41.3644L24.1948 41.9772L33.3872 51.1695ZM36.0222 32.172C36.0222 33.2889 35.1169 34.1942 34 34.1942C32.8831 34.1942 31.9778 33.2889 31.9778 32.172C31.9778 31.0552 32.8831 30.1498 34 30.1498C35.1169 30.1498 36.0222 31.0552 36.0222 32.172Z" fill="white" stroke="#B2C1CF" stroke-width="1.73333"/>
</svg>
