<svg width="68" height="68" viewBox="0 0 68 68" fill="none" xmlns="http://www.w3.org/2000/svg">
<g clip-path="url(#clip0_65_1489)">
<rect width="68" height="68" rx="10" fill="#B2C1CF"/>
<path d="M35.1789 35.2478V41.8856L35.0882 44.8055L36.8474 42.9919L38.3708 41.4322C38.4796 41.3113 38.6066 41.2206 38.7517 41.1602C38.8968 41.0997 39.0479 41.0695 39.2051 41.0695C39.5315 41.0695 39.7975 41.1722 40.0031 41.3778C40.2086 41.5833 40.3114 41.8433 40.3114 42.1576C40.3114 42.339 40.2691 42.5022 40.1844 42.6473C40.1119 42.7803 40.0152 42.9073 39.8943 43.0282L34.8705 47.7073C34.7134 47.8645 34.5683 47.9733 34.4353 48.0338C34.3023 48.0942 34.1572 48.1244 34 48.1244C33.8428 48.1244 33.6977 48.0942 33.5647 48.0338C33.4317 47.9733 33.2866 47.8645 33.1295 47.7073L28.0876 43.0282C27.9667 42.9073 27.87 42.7803 27.7974 42.6473C27.7249 42.5022 27.6886 42.339 27.6886 42.1576C27.6886 41.8433 27.7914 41.5833 27.9969 41.3778C28.2025 41.1722 28.4624 41.0695 28.7768 41.0695C28.934 41.0695 29.0851 41.0997 29.2302 41.1602C29.3753 41.2206 29.5022 41.3113 29.611 41.4322L31.1345 42.9919L32.9118 44.8055L32.803 41.8856V35.2478C32.803 34.9334 32.9239 34.6614 33.1657 34.4316C33.4076 34.1898 33.6856 34.0689 34 34.0689C34.3144 34.0689 34.5864 34.1898 34.8161 34.4316C35.0579 34.6614 35.1789 34.9334 35.1789 35.2478ZM24.8594 52.9668C23.1425 52.9668 21.8488 52.5255 20.9782 51.6429C20.1077 50.7723 19.6724 49.4665 19.6724 47.7254V21.5368C19.6724 19.7958 20.1077 18.49 20.9782 17.6194C21.8488 16.7368 23.1425 16.2955 24.8594 16.2955H33.0388C33.9456 16.2955 34.6952 16.3983 35.2877 16.6038C35.8801 16.7972 36.4786 17.2023 37.0831 17.8189L46.786 27.6669C47.2213 28.1142 47.5477 28.5313 47.7653 28.9182C47.983 29.2931 48.1281 29.7223 48.2006 30.2059C48.2732 30.6775 48.3094 31.2578 48.3094 31.947V47.7254C48.3094 49.4665 47.8742 50.7723 47.0036 51.6429C46.1452 52.5255 44.8515 52.9668 43.1225 52.9668H24.8594ZM24.9682 50.464H42.9955C43.9265 50.464 44.6278 50.2222 45.0993 49.7386C45.5709 49.267 45.8066 48.5778 45.8066 47.671V32.0014H35.8499C34.8343 32.0014 34.0665 31.7475 33.5466 31.2397C33.0388 30.7198 32.7849 29.9399 32.7849 28.9001V18.8164H24.9863C24.0674 18.8164 23.3722 19.0582 22.9007 19.5419C22.4291 20.0255 22.1934 20.7086 22.1934 21.5912V47.671C22.1934 48.5778 22.4231 49.267 22.8825 49.7386C23.3541 50.2222 24.0493 50.464 24.9682 50.464ZM36.1401 29.6437H45.317L35.1244 19.2879V28.6099C35.1244 28.9727 35.203 29.2387 35.3602 29.4079C35.5174 29.5651 35.7773 29.6437 36.1401 29.6437Z" fill="white"/>
</g>
<defs>
<clipPath id="clip0_65_1489">
<rect width="68" height="68" rx="10" fill="white"/>
</clipPath>
</defs>
</svg>
