<svg width="31" height="31" viewBox="0 0 31 31" fill="none" xmlns="http://www.w3.org/2000/svg">
<path d="M15.5781 30.3799C13.5371 30.3799 11.6133 29.9893 9.80664 29.208C8 28.4268 6.4082 27.3477 5.03125 25.9707C3.6543 24.5938 2.5752 23.002 1.79395 21.1953C1.0127 19.3887 0.62207 17.4648 0.62207 15.4238C0.62207 13.3828 1.0127 11.459 1.79395 9.65234C2.5752 7.8457 3.64941 6.25391 5.0166 4.87695C6.39355 3.5 7.98535 2.4209 9.79199 1.63965C11.5986 0.858398 13.5225 0.467773 15.5635 0.467773C17.6045 0.467773 19.5283 0.858398 21.335 1.63965C23.1514 2.4209 24.748 3.5 26.125 4.87695C27.502 6.25391 28.5811 7.8457 29.3623 9.65234C30.1436 11.459 30.5342 13.3828 30.5342 15.4238C30.5342 17.4648 30.1436 19.3887 29.3623 21.1953C28.5811 23.002 27.502 24.5938 26.125 25.9707C24.748 27.3477 23.1562 28.4268 21.3496 29.208C19.543 29.9893 17.6191 30.3799 15.5781 30.3799ZM13.9521 22.5869C14.2061 22.5869 14.4355 22.5283 14.6406 22.4111C14.8457 22.2939 15.0264 22.1133 15.1826 21.8691L22.0674 11.0293C22.1553 10.8828 22.2383 10.7266 22.3164 10.5605C22.3945 10.3945 22.4336 10.2285 22.4336 10.0625C22.4336 9.7207 22.3066 9.44727 22.0527 9.24219C21.7988 9.03711 21.5107 8.93457 21.1885 8.93457C20.7588 8.93457 20.4023 9.16406 20.1191 9.62305L13.8936 19.6279L10.9346 15.8193C10.7393 15.5752 10.5537 15.4092 10.3779 15.3213C10.2119 15.2334 10.0215 15.1895 9.80664 15.1895C9.47461 15.1895 9.19141 15.3115 8.95703 15.5557C8.73242 15.79 8.62012 16.0781 8.62012 16.4199C8.62012 16.5859 8.64941 16.752 8.70801 16.918C8.77637 17.0742 8.86426 17.2256 8.97168 17.3721L12.6484 21.8691C12.8438 22.1328 13.0439 22.3184 13.249 22.4258C13.4541 22.5332 13.6885 22.5869 13.9521 22.5869Z" fill="#20BF06"/>
</svg>
